<svg xmlns="http://www.w3.org/2000/svg" viewBox="0 0 300 300" width="300" height="300">
	<style>
		tspan { white-space:pre }
		.shp0 { fill: none;stroke: #808080;stroke-width: 11 } 
		.shp1 { fill: none;stroke: #808080;stroke-width: 5 } 
	</style>
	<path id="Background" class="shp0" d="M150.01 294C70.38 294 6 229.64 6 150.01C6 70.38 70.36 6 149.99 6C229.62 6 294 70.36 294 149.99C294 229.62 229.64 294 150.01 294Z" />
	<path id="Shape 1" class="shp1" d="M150.5 279C79.99 279 23 221.56 23 150.5C23 79.44 79.99 22 150.5 22C221.01 22 278 79.44 278 150.5C278 221.56 221.01 279 150.5 279Z" />
	<path id="H " fill="#ffffff" d="M109.69 175L109.69 67L111.69 67L111.69 120L188.49 120L188.49 67L190.49 67L190.49 175L188.49 175L188.49 122L111.69 122L111.69 175ZM126.29 193C131.29 193 133.49 190.8 133.49 185.8L133.49 141.4L166.89 141.4L166.89 185.8C166.89 190.8 169.09 193 174.09 193L205.09 193C210.09 193 212.29 190.8 212.29 185.8L212.29 56.2C212.29 51.2 210.09 49 205.09 49L174.09 49C169.09 49 166.89 51.2 166.89 56.2L166.89 99.6L133.49 99.6L133.49 56.2C133.49 51.2 131.29 49 126.29 49L95.29 49C90.29 49 88.09 51.2 88.09 56.2L88.09 185.8C88.09 190.8 90.29 193 95.29 193Z" />
	<path id="Hedge the Book " fill="#ffffff" d="M86.91 215.13L86.91 225L88.32 225L88.32 204L86.91 204L86.91 213.87L80.37 213.87L80.37 204L78.99 204L78.99 225L80.37 225L80.37 215.13ZM92.1 213.72L92.1 205.26L99 205.26L99 204L90.72 204L90.72 225L99 225L99 223.74L92.1 223.74L92.1 214.98L97.83 214.98L97.83 213.72ZM101.25 204L101.25 225L105.87 225C109.11 225 110.52 222.87 110.52 219.78L110.52 209.22C110.52 206.13 109.11 204 105.87 204ZM102.63 223.74L102.63 205.26L105.84 205.26C108.15 205.26 109.14 206.85 109.14 209.16L109.14 219.84C109.14 222.15 108.18 223.74 105.84 223.74ZM117.24 203.82C114.03 203.82 112.71 206.1 112.71 209.13L112.71 219.87C112.71 222.9 114.03 225.18 117.24 225.18C120.45 225.18 121.77 222.9 121.77 219.87L121.77 214.17L117.66 214.17L117.66 215.43L120.45 215.43L120.45 219.96C120.45 222.21 119.58 223.89 117.27 223.89C114.96 223.89 114.09 222.21 114.09 219.96L114.09 209.04C114.09 206.79 114.96 205.08 117.27 205.08C119.58 205.08 120.45 206.79 120.45 209.04L120.45 210.69L121.77 210.69L121.77 209.13C121.77 206.1 120.45 203.82 117.24 203.82ZM125.46 213.72L125.46 205.26L132.36 205.26L132.36 204L124.08 204L124.08 225L132.36 225L132.36 223.74L125.46 223.74L125.46 214.98L131.19 214.98L131.19 213.72ZM144.18 225L144.18 205.26L148.47 205.26L148.47 204L138.54 204L138.54 205.26L142.8 205.26L142.8 225ZM158.1 215.13L158.1 225L159.51 225L159.51 204L158.1 204L158.1 213.87L151.56 213.87L151.56 204L150.18 204L150.18 225L151.56 225L151.56 215.13ZM163.29 213.72L163.29 205.26L170.19 205.26L170.19 204L161.91 204L161.91 225L170.19 225L170.19 223.74L163.29 223.74L163.29 214.98L169.02 214.98L169.02 213.72ZM177.09 204L177.09 225L181.59 225C184.8 225 186.18 223.17 186.18 220.14L186.18 218.31C186.18 215.94 185.31 214.26 183.03 213.81C185.16 213.36 185.79 211.95 185.79 209.67L185.79 208.47C185.79 205.56 184.65 204 181.5 204ZM178.47 213.27L178.47 205.26L181.47 205.26C183.72 205.26 184.41 206.4 184.41 208.59L184.41 209.94C184.41 212.61 183.27 213.27 180.81 213.27ZM178.47 223.74L178.47 214.53L181.08 214.53C183.57 214.53 184.8 215.49 184.8 218.22L184.8 220.11C184.8 222.45 183.9 223.74 181.59 223.74ZM188.34 219.87C188.34 222.93 189.75 225.18 192.93 225.18C196.17 225.18 197.58 222.93 197.58 219.87L197.58 209.13C197.58 206.07 196.17 203.82 192.93 203.82C189.75 203.82 188.34 206.07 188.34 209.13ZM189.72 209.04C189.72 206.76 190.62 205.08 192.93 205.08C195.27 205.08 196.2 206.76 196.2 209.04L196.2 219.96C196.2 222.24 195.27 223.92 192.93 223.92C190.62 223.92 189.72 222.24 189.72 219.96ZM199.77 219.87C199.77 222.93 201.18 225.18 204.36 225.18C207.6 225.18 209.01 222.93 209.01 219.87L209.01 209.13C209.01 206.07 207.6 203.82 204.36 203.82C201.18 203.82 199.77 206.07 199.77 209.13ZM201.15 209.04C201.15 206.76 202.05 205.08 204.36 205.08C206.7 205.08 207.63 206.76 207.63 209.04L207.63 219.96C207.63 222.24 206.7 223.92 204.36 223.92C202.05 223.92 201.15 222.24 201.15 219.96ZM219.9 225L221.34 225L214.95 213.78L220.95 204L219.51 204L212.67 215.1L212.67 204L211.29 204L211.29 225L212.67 225L212.67 217.41L214.11 215.13Z" />
	<path id="Analytics " fill="#ffffff" d="M111.97 247.35L113.03 252L114.41 252L109.72 230.97L107.72 230.97L103.13 252L104.39 252L105.44 247.35ZM108.68 232.56L111.77 246.15L105.65 246.15ZM117.77 233.28L124.34 252L125.86 252L125.86 231L124.6 231L124.6 248.73L118.31 231L116.5 231L116.5 252L117.77 252ZM136.78 247.35L137.84 252L139.22 252L134.53 230.97L132.53 230.97L127.94 252L129.19 252L130.25 247.35ZM133.49 232.56L136.57 246.15L130.46 246.15ZM149.3 252L149.3 250.74L142.69 250.74L142.69 231L141.31 231L141.31 252ZM153.82 252L155.21 252L155.21 243.93L159.94 231L158.59 231L154.57 242.04L150.56 231L149.12 231L153.82 243.93ZM166.88 252L166.88 232.26L171.16 232.26L171.16 231L161.24 231L161.24 232.26L165.5 232.26L165.5 252ZM172.88 231L172.88 252L174.25 252L174.25 231ZM181.09 230.82C177.88 230.82 176.56 233.1 176.56 236.13L176.56 246.87C176.56 249.9 177.88 252.18 181.09 252.18C184.31 252.18 185.63 249.9 185.63 246.87L185.63 244.47L184.31 244.47L184.31 246.96C184.31 249.21 183.44 250.89 181.13 250.89C178.81 250.89 177.94 249.21 177.94 246.96L177.94 236.04C177.94 233.79 178.81 232.08 181.13 232.08C183.44 232.08 184.31 233.79 184.31 236.04L184.31 237.87L185.63 237.87L185.63 236.13C185.63 233.1 184.31 230.82 181.09 230.82ZM192.25 230.82C189.17 230.85 187.78 232.89 187.78 236.04C187.78 241.89 195.38 241.98 195.38 247.02C195.38 249.27 194.5 250.89 192.19 250.89C189.88 250.89 189.01 249.27 189.01 247.02L189.01 245.85L187.69 245.85L187.69 246.93C187.69 249.96 189.01 252.18 192.22 252.18C195.44 252.18 196.75 249.96 196.75 246.93C196.75 241.14 189.17 241.05 189.17 235.95C189.17 233.73 190 232.08 192.28 232.08C194.56 232.08 195.41 233.76 195.41 235.98L195.41 236.52L196.72 236.52L196.72 236.07C196.72 233.04 195.44 230.82 192.25 230.82Z" />
</svg>